<svg xmlns="http://www.w3.org/2000/svg" width="20" height="16" viewBox="0 0 20 16">
  <g id="saudi-arabia_flag" data-name="saudi-arabia/flag" transform="translate(0 -86.525)">
    <path id="Path_10632" data-name="Path 10632" d="M18.5,104.275H1.5A1.683,1.683,0,0,1,0,102.446V90.1a1.683,1.683,0,0,1,1.5-1.829h17A1.683,1.683,0,0,1,20,90.1v12.341a1.683,1.683,0,0,1-1.5,1.829Z" transform="translate(0 -1.75)" fill="#259245"/>
    <g id="Group_1974" data-name="Group 1974" transform="translate(3.955 90.908)">
      <path id="Path_10633" data-name="Path 10633" d="M102.343,167.419c.034.208.166.273.28.264a.274.274,0,0,0,.253-.25v-.713a.068.068,0,0,1,.136,0v.716a.256.256,0,0,0,.119.214.281.281,0,0,0,.153.044.285.285,0,0,0,.1-.019l.068-.026c.006.6-.032,1.125-.033,1.134a.132.132,0,0,0,.125.139h.01a.134.134,0,0,0,.136-.121c0-.042.045-.618.033-1.256l.041-.016a.142.142,0,0,1,.111,0,.4.4,0,0,0,.448-.069l.024-.023a.375.375,0,0,0,.1-.4l-.116-.331a.139.139,0,0,0,.161-.066.125.125,0,0,0-.062-.174l-.272-.129a.141.141,0,0,0-.15.018.125.125,0,0,0-.04.139l.219.625a.125.125,0,0,1-.033.133l-.024.023a.121.121,0,0,1-.134.021.424.424,0,0,0-.282-.027,4.28,4.28,0,0,0-.166-1.117.137.137,0,0,0-.172-.082.128.128,0,0,0-.086.164,4.266,4.266,0,0,1,.156,1.132l-.163.063v-.716a.34.34,0,1,0-.68,0v.625l-.139-.653a.135.135,0,0,0-.16-.1.13.13,0,0,0-.106.153Z" transform="translate(-102.16 -165.803)" fill="#f5f5f5"/>
      <path id="Path_10634" data-name="Path 10634" d="M109.3,162.984a.133.133,0,0,0,.136-.129v-.131a.136.136,0,0,0-.272,0v.129a.133.133,0,0,0,.136.131Z" transform="translate(-108.85 -162.458)" fill="#f5f5f5"/>
      <path id="Path_10635" data-name="Path 10635" d="M144.091,162.853h.136a.13.13,0,1,0,0-.259h-.136a.13.13,0,1,0,0,.259Z" transform="translate(-142.286 -162.456)" fill="#f5f5f5"/>
      <path id="Path_10636" data-name="Path 10636" d="M106.424,214.808l-.679.389a.125.125,0,0,0-.047.178.137.137,0,0,0,.117.063.14.14,0,0,0,.07-.019l.679-.389a.125.125,0,0,0,.047-.178A.139.139,0,0,0,106.424,214.808Z" transform="translate(-105.505 -212.706)" fill="#f5f5f5"/>
      <path id="Path_10637" data-name="Path 10637" d="M118.213,168.135h0a.291.291,0,0,0,.063.122.274.274,0,0,0,.232.086.38.38,0,0,0,.283-.142l.029.016a.268.268,0,0,0,.239-.008.485.485,0,0,0,.244-.456.137.137,0,0,0-.141-.125.132.132,0,0,0-.13.134s0,.156-.1.212a.307.307,0,0,1-.043-.109.135.135,0,0,0-.145-.108.132.132,0,0,0-.125.129c0,.019,0,.188-.139.2a.3.3,0,0,1,0-.17.125.125,0,0,0-.055-.137.141.141,0,0,0-.154,0l-.076.049c-.036-.75-.119-1.628-.12-1.639a.134.134,0,0,0-.147-.117.132.132,0,0,0-.125.141c0,.012.1,1.026.125,1.8l-.021.019a.348.348,0,0,0-.3-.223.5.5,0,0,0-.479.289.3.3,0,0,0,.1.387.473.473,0,0,0,.406.018,1.069,1.069,0,0,1-.221.4.579.579,0,0,1-.434.211.366.366,0,0,1-.264-.107.715.715,0,0,1-.144-.464.136.136,0,0,0-.271-.014.961.961,0,0,0,.213.652.637.637,0,0,0,.455.193h.027a.843.843,0,0,0,.625-.3,1.313,1.313,0,0,0,.313-.664,1.453,1.453,0,0,1-.653,1.164.706.706,0,0,1-.681.047.547.547,0,0,1-.3-.549.131.131,0,0,0-.118-.145.135.135,0,0,0-.152.112.8.8,0,0,0,.449.812.96.96,0,0,0,.411.094,1.041,1.041,0,0,0,.533-.153,1.7,1.7,0,0,0,.781-1.386C118.218,168.322,118.216,168.231,118.213,168.135Zm-.819.134c-.024-.016-.006-.062,0-.074a.231.231,0,0,1,.188-.125h.011c.018,0,.063.006.083.1a.282.282,0,0,0,0,.032C117.53,168.288,117.429,168.29,117.394,168.268Z" transform="translate(-115.462 -165.804)" fill="#f5f5f5"/>
      <path id="Path_10638" data-name="Path 10638" d="M101.74,243.17a.14.14,0,0,0-.188.046.266.266,0,0,1-.023.031l0-.011a.833.833,0,0,1,0-.437.129.129,0,0,0-.1-.159.137.137,0,0,0-.166.092,1.067,1.067,0,0,0,0,.6c.063.159.158.2.228.2h.018a.356.356,0,0,0,.271-.187.125.125,0,0,0-.047-.176Z" transform="translate(-101.226 -239.514)" fill="#f5f5f5"/>
      <path id="Path_10639" data-name="Path 10639" d="M175.267,163.76a.139.139,0,0,0,.084-.027l.687-.513a.124.124,0,0,0,.022-.025.321.321,0,0,0,.166-.277.34.34,0,0,0-.679,0,.317.317,0,0,0,.125.25l-.485.363a.125.125,0,0,0-.023.182.138.138,0,0,0,.1.048Zm.618-.908a.063.063,0,1,1-.068.063.066.066,0,0,1,.068-.062Z" transform="translate(-172.244 -162.456)" fill="#f5f5f5"/>
      <path id="Path_10640" data-name="Path 10640" d="M185.349,190.438a.137.137,0,0,0-.172.082.381.381,0,0,0,.053.382.282.282,0,0,0,.2.074.625.625,0,0,0,.188-.033.128.128,0,0,0,.086-.164.138.138,0,0,0-.172-.082.491.491,0,0,1-.111.022.238.238,0,0,1,.011-.119.128.128,0,0,0-.086-.163Z" transform="translate(-181.871 -189.256)" fill="#f5f5f5"/>
      <path id="Path_10641" data-name="Path 10641" d="M227.713,162.961a.142.142,0,0,0,.038,0,.135.135,0,0,0,.131-.093l.079-.259a.129.129,0,0,0-.092-.161.137.137,0,0,0-.169.088l-.079.259a.129.129,0,0,0,.092.161Z" transform="translate(-222.679 -162.315)" fill="#f5f5f5"/>
      <path id="Path_10642" data-name="Path 10642" d="M205.949,159.528a.14.14,0,0,0,.069.017.137.137,0,0,0,.117-.062.125.125,0,0,0-.049-.178c-.027-.015-.024-.058-.022-.067a.1.1,0,0,1,.063-.087.129.129,0,0,0,.089-.162.138.138,0,0,0-.17-.086.36.36,0,0,0-.25.3A.312.312,0,0,0,205.949,159.528Z" transform="translate(-201.706 -158.897)" fill="#f5f5f5"/>
      <path id="Path_10643" data-name="Path 10643" d="M178.89,232.189a.133.133,0,0,0-.136.129.131.131,0,0,0,.111.125.234.234,0,0,1,.026.132.136.136,0,0,0,.272,0C179.161,232.2,178.9,232.189,178.89,232.189Z" transform="translate(-175.726 -229.458)" fill="#f5f5f5"/>
      <path id="Path_10644" data-name="Path 10644" d="M234.7,208.2a.327.327,0,0,0,.051,0,.474.474,0,0,0,.321-.153.125.125,0,0,0,0-.183.141.141,0,0,0-.192,0c-.081.078-.125.079-.136.077-.026,0-.049-.036-.055-.044a.139.139,0,0,0-.181-.056.125.125,0,0,0-.062.174A.364.364,0,0,0,234.7,208.2Z" transform="translate(-229.227 -206.007)" fill="#f5f5f5"/>
      <path id="Path_10645" data-name="Path 10645" d="M293.853,190.907V190.9a.137.137,0,0,0-.172-.081.128.128,0,0,0-.086.164.3.3,0,0,0,.221.2h.03a.334.334,0,0,0,.263-.173.125.125,0,0,0-.037-.18.14.14,0,0,0-.188.036A.4.4,0,0,1,293.853,190.907Z" transform="translate(-286.073 -189.624)" fill="#f5f5f5"/>
      <path id="Path_10646" data-name="Path 10646" d="M203.3,169.436c0-.553-.026-1.072-.062-1.526a6.444,6.444,0,0,1,.477.924.136.136,0,0,0,.125.084.144.144,0,0,0,.048-.008.125.125,0,0,0,.079-.167,8.458,8.458,0,0,0-.786-1.421c-.074-.7-.158-1.142-.159-1.15a.135.135,0,0,0-.158-.1.13.13,0,0,0-.109.151c0,.006.044.234.1.618-.1-.148-.2-.281-.283-.391h.007a.137.137,0,0,0,.172-.082.128.128,0,0,0-.086-.164l-.407-.129a.139.139,0,0,0-.153.047.125.125,0,0,0-.02.04.307.307,0,0,0-.284-.063.219.219,0,0,0-.13.231,1.125,1.125,0,0,0,.094.368c.08.216.13.375.046.451a.153.153,0,0,1-.139.047c-.084-.02-.167-.125-.222-.285a.121.121,0,0,0-.011-.018,2.107,2.107,0,0,0-.041-.717.136.136,0,0,0-.16-.1.13.13,0,0,0-.107.152,1.184,1.184,0,0,1-.071.924.25.25,0,0,1-.2.088.08.08,0,0,1-.063-.029,1.2,1.2,0,0,1-.072-.731.125.125,0,0,0-.032-.1.139.139,0,0,0-.1-.045c-.234,0-.323.254-.4.477-.034.1-.1.281-.143.3-.082,0-.136-.231-.136-.389a.133.133,0,0,0-.136-.129h0a.132.132,0,0,0-.136.129c0,.3.107.648.407.648.224,0,.313-.233.391-.449a.787.787,0,0,0,.154.461.356.356,0,0,0,.271.118.528.528,0,0,0,.414-.182.6.6,0,0,0,.051-.071.506.506,0,0,0,.285.2.41.41,0,0,0,.1.012.442.442,0,0,0,.3-.121.089.089,0,0,1,.146-.038.569.569,0,0,0,.282-.083.125.125,0,0,0,.041-.178.14.14,0,0,0-.187-.041.3.3,0,0,1-.154.039,1.287,1.287,0,0,0-.1-.426,1.747,1.747,0,0,1-.071-.217l.032.027a.141.141,0,0,0,.192,0,.124.124,0,0,0,.02-.028c.141.188.431.574.729,1.023a19.927,19.927,0,0,1,.107,2.026.136.136,0,0,0,.272,0Z" transform="translate(-195.785 -165.798)" fill="#f5f5f5"/>
      <path id="Path_10647" data-name="Path 10647" d="M293.717,166.589a.136.136,0,0,0,.272,0,1.28,1.28,0,0,0-.15-.447.139.139,0,0,0-.182-.058.125.125,0,0,0-.063.174,1.117,1.117,0,0,1,.123.331Z" transform="translate(-286.07 -165.806)" fill="#f5f5f5"/>
      <path id="Path_10648" data-name="Path 10648" d="M263.009,249.861a.139.139,0,0,0-.182.057.377.377,0,0,1-.056.077.693.693,0,0,1,.036-.24.125.125,0,0,0-.062-.149.141.141,0,0,0-.166.019l-.272.259a.125.125,0,0,0,0,.183.141.141,0,0,0,.192,0l.007-.007a.264.264,0,0,0,.072.136.246.246,0,0,0,.214.071.438.438,0,0,0,.276-.235.125.125,0,0,0-.057-.172Z" transform="translate(-255.977 -246.209)" fill="#f5f5f5"/>
      <path id="Path_10649" data-name="Path 10649" d="M169.324,205.265h-.958q.012-.048.026-.092c.382-.076.609-.193.676-.351a.279.279,0,0,0-.051-.291.344.344,0,0,0-.344-.14c-.193.038-.365.236-.489.554a1.6,1.6,0,0,0-.785.324,1.95,1.95,0,0,0-.282-.862.14.14,0,0,0-.188-.036.125.125,0,0,0-.037.18,1.812,1.812,0,0,1,.25.966,1.038,1.038,0,0,1-.813,1.038c-.152,0-.219-.173-.25-.319a1.514,1.514,0,0,0,.653-.687.989.989,0,0,0-.091-.7l-.01-.022.009.007a.141.141,0,0,0,.192,0,.125.125,0,0,0,0-.183c-.079-.076-.234-.195-.375-.139a.219.219,0,0,0-.13.231.533.533,0,0,0,.063.208.75.75,0,0,1,.077.538,1.115,1.115,0,0,1-.445.468.136.136,0,0,0-.1-.048h0a.133.133,0,0,0-.136.129v.074a7.262,7.262,0,0,1-.875.456.125.125,0,0,0-.067.172.136.136,0,0,0,.125.076.14.14,0,0,0,.056-.012,7.966,7.966,0,0,0,.812-.414.52.52,0,0,0,.491.426,1.154,1.154,0,0,0,.909-.634.755.755,0,0,0,.091.125,1.579,1.579,0,0,0,1.039.381.129.129,0,0,0,.01-.259.3.3,0,0,1-.169-.079.215.215,0,0,1-.044-.17c.014-.16.554-.279,1.031-.286a.136.136,0,0,0,.125-.086l.136-.364a.125.125,0,0,0-.017-.118A.137.137,0,0,0,169.324,205.265Zm-.6-.619h.011c.013,0,.034.006.063.041,0,.007.022.029.017.039-.016.037-.109.1-.3.152C168.6,204.717,168.682,204.655,168.727,204.646Zm-.821,1.7a.84.84,0,0,1-.375-.218.533.533,0,0,1-.121-.457.378.378,0,0,1,.028-.055c.191-.017.7.055.738.195a.438.438,0,0,0-.287.338A.523.523,0,0,0,167.907,206.35Z" transform="translate(-162.346 -202.656)" fill="#f5f5f5"/>
      <path id="Path_10650" data-name="Path 10650" d="M291.188,166.547l-.136-.389a.137.137,0,0,0-.157-.086.131.131,0,0,0-.107.139c.094.9.271,2.64.271,2.84,0,.179-.335.534-.875.792a.125.125,0,0,0-.063.174.137.137,0,0,0,.122.072.142.142,0,0,0,.063-.014c.494-.236,1.027-.657,1.027-1.024,0-.192-.139-1.57-.219-2.344A.125.125,0,0,0,291.188,166.547Z" transform="translate(-282.729 -165.803)" fill="#f5f5f5"/>
      <path id="Path_10651" data-name="Path 10651" d="M335.792,193.855a.141.141,0,0,0,.163.021.125.125,0,0,0,.063-.145.625.625,0,0,1-.019-.25.136.136,0,0,0,.141-.111.131.131,0,0,0-.115-.147.25.25,0,0,0-.224.072.291.291,0,0,0-.069.139l-.158-.15a.141.141,0,0,0-.192,0,.125.125,0,0,0,0,.183Z" transform="translate(-326.2 -191.941)" fill="#f5f5f5"/>
      <path id="Path_10652" data-name="Path 10652" d="M340.695,213.285l-.51.349a.125.125,0,0,0-.031.181.14.14,0,0,0,.189.03l.51-.349a.125.125,0,0,0,.031-.181.14.14,0,0,0-.189-.03Z" transform="translate(-330.796 -211.237)" fill="#f5f5f5"/>
      <path id="Path_10653" data-name="Path 10653" d="M352.771,225.712a.125.125,0,0,0,.012.172.345.345,0,0,1,.027.188.133.133,0,0,0,.131.134h.005a.133.133,0,0,0,.136-.125c.01-.264-.081-.361-.121-.391A.141.141,0,0,0,352.771,225.712Z" transform="translate(-342.917 -223.174)" fill="#f5f5f5"/>
      <path id="Path_10654" data-name="Path 10654" d="M323.859,169.3a.133.133,0,0,0,.136-.13c0-.191-.011-.4-.027-.625a4.662,4.662,0,0,1,.319.563.136.136,0,0,0,.125.079.139.139,0,0,0,.054-.011.125.125,0,0,0,.071-.17,7.058,7.058,0,0,0-.625-1.023c-.053-.476-.125-.943-.177-1.277a.136.136,0,0,0,.085-.02.073.073,0,1,1,.077-.079.454.454,0,0,1,.049.318.13.13,0,0,0,.106.153h.028a.135.135,0,0,0,.133-.1.708.708,0,0,0-.086-.509.141.141,0,0,0-.188-.04.072.072,0,1,1-.078.08l-.229-.341a.139.139,0,0,0-.164-.051.129.129,0,0,0-.084.143c0,.01.106.579.2,1.265-.1-.141-.208-.277-.312-.409-.016-.2-.033-.375-.047-.528l.022-.008a.125.125,0,0,0,.063-.174l-.136-.259a.139.139,0,0,0-.159-.067.13.13,0,0,0-.1.137c.016.155.033.326.049.506l-.234-.291a.129.129,0,0,0,.033-.041.125.125,0,0,0-.062-.174l-.272-.129a.141.141,0,0,0-.166.034.125.125,0,0,0,0,.162c.007.009.342.409.742.926a9.948,9.948,0,0,1,.051,1.938c-.012.034-.033.074-.053.076-.082.011-.278-.164-.375-.352a.188.188,0,0,0-.182-.118c-.146.009-.2.162-.307.438a1.79,1.79,0,0,1-.27.549,1.426,1.426,0,0,1-.169-.511.135.135,0,0,0,.261-.044c0-.193-.142-1.666-.221-2.473a.125.125,0,0,0,.078-.161l-.136-.389a.137.137,0,0,0-.157-.086.131.131,0,0,0-.108.139c.092.925.266,2.712.271,2.958v-.007a.136.136,0,0,0-.154-.11.131.131,0,0,0-.116.147c.04.265.141.721.375.795a.236.236,0,0,0,.073.011.273.273,0,0,0,.191-.084,1.839,1.839,0,0,0,.337-.648c.02-.054.044-.117.066-.172.125.174.342.39.562.375a.33.33,0,0,0,.291-.25,6.967,6.967,0,0,0,0-1.619c.114.153.229.313.339.465a10.655,10.655,0,0,1,.073,1.1.133.133,0,0,0,.137.127Z" transform="translate(-312.82 -165.807)" fill="#f5f5f5"/>
      <path id="Path_10655" data-name="Path 10655" d="M382.3,169.035c-.1-.684-.231-1.477-.312-1.964a.139.139,0,0,0,.114-.023.125.125,0,0,0,.026-.182l-.246-.308a.14.14,0,0,0-.163-.04.129.129,0,0,0-.079.141c0,.013.245,1.344.395,2.41a1.173,1.173,0,0,1-.224.973.618.618,0,0,1-.5.177.134.134,0,0,0-.144.121.132.132,0,0,0,.125.137h.068a.878.878,0,0,0,.646-.261A1.4,1.4,0,0,0,382.3,169.035Z" transform="translate(-370.225 -166.224)" fill="#f5f5f5"/>
      <path id="Path_10656" data-name="Path 10656" d="M371.051,256.174a.125.125,0,0,0,.007.182.053.053,0,0,1,.016.027.062.062,0,0,1-.021.029.125.125,0,0,0,0,.183.141.141,0,0,0,.193,0,.288.288,0,0,0,.1-.221.3.3,0,0,0-.107-.211.139.139,0,0,0-.188.012Z" transform="translate(-360.475 -252.508)" fill="#f5f5f5"/>
      <path id="Path_10657" data-name="Path 10657" d="M152.385,326.881h-.951v-.129a.136.136,0,0,0-.272,0v.129h-7.2a1.958,1.958,0,0,0,1.223.389h5.981v.259a.133.133,0,0,0,.136.129h1.088a.389.389,0,1,0,0-.778Zm0,.519h-.951v-.129h1.088l-.024-.07a.125.125,0,0,1,.024.07.133.133,0,0,1-.136.129Z" transform="translate(-142.288 -320.372)" fill="#f5f5f5"/>
    </g>
  </g>
</svg>
